<svg width="108" height="22" viewBox="0 0 108 22" fill="none" xmlns="http://www.w3.org/2000/svg">
<circle cx="82.5" cy="10.5" r="2.5" fill="#D1AE7E"/>
<line x1="6.1285e-10" y1="10.5" x2="83" y2="10.5" stroke="#D1AE7E"/>
<path d="M107.5 11C107.5 12.2681 106.609 13.5842 104.731 14.8691C102.87 16.1428 100.144 17.3098 96.731 18.2979C89.9111 20.2721 80.4601 21.5 70 21.5C59.5399 21.5 50.0889 20.2721 43.269 18.2979C39.8556 17.3098 37.1298 16.1428 35.2686 14.8691C33.3913 13.5842 32.5 12.2681 32.5 11C32.5 9.7319 33.3913 8.41575 35.2686 7.13092C37.1298 5.85717 39.8556 4.69018 43.269 3.70211C50.0889 1.72791 59.5399 0.5 70 0.5C80.4601 0.5 89.9111 1.72791 96.731 3.70211C100.144 4.69018 102.87 5.85717 104.731 7.13092C106.609 8.41575 107.5 9.7319 107.5 11Z" stroke="#D1AE7E"/>
</svg>
